<?xml version="1.0" encoding="UTF-8"?>
<svg id="Layer_1" xmlns="http://www.w3.org/2000/svg" version="1.1" xmlns:xlink="http://www.w3.org/1999/xlink" viewBox="0 0 189.7 44.1">
  <!-- Generator: Adobe Illustrator 29.0.0, SVG Export Plug-In . SVG Version: 2.1.0 Build 186)  -->
  <defs>
    <style>
      .st0 {
        fill: #ffe600;
      }

      .st0, .st1, .st2, .st3, .st4, .st5 {
        fill-rule: evenodd;
      }

      .st6 {
        fill: #fff;
      }

      .st1 {
        fill: #0054a6;
      }

      .st2 {
        fill: #f68b1f;
      }

      .st3 {
        fill: url(#linear-gradient1);
      }

      .st4 {
        fill: url(#linear-gradient);
      }

      .st5 {
        fill: url(#linear-gradient2);
      }
    </style>
    <linearGradient id="linear-gradient" x1="20.5" y1="-720.2" x2="16.1" y2="-721.8" gradientTransform="translate(0 -705.8) scale(1 -1)" gradientUnits="userSpaceOnUse">
      <stop offset="0" stop-color="#ffed40"/>
      <stop offset="0" stop-color="#ffec36" stop-opacity=".9"/>
      <stop offset=".3" stop-color="#ffe91e" stop-opacity=".7"/>
      <stop offset=".5" stop-color="#ffe80d" stop-opacity=".5"/>
      <stop offset=".7" stop-color="#ffe703" stop-opacity=".3"/>
      <stop offset="1" stop-color="#ffe600" stop-opacity="0"/>
    </linearGradient>
    <linearGradient id="linear-gradient1" x1="18.8" y1="-724.4" x2="15.5" y2="-726.3" gradientTransform="translate(0 -705.8) scale(1 -1)" gradientUnits="userSpaceOnUse">
      <stop offset="0" stop-color="#fff"/>
      <stop offset=".2" stop-color="#fff9c2" stop-opacity=".8"/>
      <stop offset=".3" stop-color="#fff388" stop-opacity=".7"/>
      <stop offset=".5" stop-color="#ffef57" stop-opacity=".5"/>
      <stop offset=".6" stop-color="#ffeb31" stop-opacity=".4"/>
      <stop offset=".8" stop-color="#ffe916" stop-opacity=".2"/>
      <stop offset=".9" stop-color="#ffe706" stop-opacity="0"/>
      <stop offset="1" stop-color="#ffe600" stop-opacity="0"/>
    </linearGradient>
    <linearGradient id="linear-gradient2" x1="17.6" y1="-728" x2="10.9" y2="-731.9" gradientTransform="translate(0 -705.8) scale(1 -1)" gradientUnits="userSpaceOnUse">
      <stop offset="0" stop-color="#00aeef"/>
      <stop offset="0" stop-color="#00a9eb" stop-opacity="1"/>
      <stop offset=".2" stop-color="#008ad2" stop-opacity=".8"/>
      <stop offset=".4" stop-color="#0072bf" stop-opacity=".6"/>
      <stop offset=".5" stop-color="#0061b1" stop-opacity=".5"/>
      <stop offset=".7" stop-color="#0057a9" stop-opacity=".3"/>
      <stop offset="1" stop-color="#0054a6" stop-opacity="0"/>
    </linearGradient>
  </defs>
  <rect class="st6" x="34.2" y=".3" width="1.4" height="44"/>
  <g>
    <path class="st6" d="M1.8,40.7v.5c0,1,.4,1.6,1.1,1.6s1-.4,1-1.1,0-.7-.4-1c-.2-.2-.7-.6-1.4-1s-1.3-.9-1.6-1.3S0,37.4,0,36.8C0,35.1.9,34.4,2.7,34.4s1.7.2,2.1.7.6,1.3.6,2.3h-1.6v-.3c0-.9-.4-1.3-1-1.3s-1,.3-1,.9.1.6.3.8c.2.2.7.5,1.4,1,.8.5,1.4,1,1.7,1.4.4.4.5.9.5,1.6s-.2,1.6-.7,2-1.2.7-2.1.7c-1.9,0-2.9-1-2.9-2.8v-.7h1.8Z"/>
    <path class="st6" d="M8.7,40.7v.5c0,1,.4,1.6,1.1,1.6s1-.4,1-1.1-.1-.7-.4-1c-.2-.2-.7-.6-1.4-1s-1.3-.9-1.6-1.3c-.2-.4-.4-.9-.4-1.5,0-1.7.9-2.4,2.7-2.4s1.7.2,2.1.7.6,1.3.6,2.3h-1.7v-.3c0-.9-.4-1.3-1-1.3s-1,.3-1,.9.1.6.3.8.7.5,1.4,1c.8.5,1.4,1,1.7,1.4.4.4.5.9.5,1.6s-.2,1.6-.7,2c-.5.5-1.2.7-2.1.7-1.9,0-2.9-1-2.9-2.8v-.7h1.8Z"/>
    <path class="st6" d="M17.2,40.4v-1.4h2.9v5h-1.3v-1.2c-.2.5-.4.8-.7,1-.3.2-.7.4-1.2.4-1.1,0-1.8-.3-2.2-.8-.4-.6-.7-1.6-.7-3v-1.9c0-1.6.2-2.6.7-3.2.5-.5,1.3-.8,2.4-.8s1.9.2,2.3.8c.5.5.7,1.3.7,2.4h-1.7c0-.6-.1-1-.3-1.3-.2-.3-.5-.4-1-.4s-.8.2-1,.5-.3.8-.3,1.4v3c0,1.3.4,2,1.3,2s.8-.2,1.1-.6c.2-.4.3-1,.3-1.8h-1.3Z"/>
    <path class="st6" d="M25.6,40.7h1.7c0,1.1-.2,2-.6,2.6-.4.7-1.1,1-2.1,1s-2-.3-2.4-.9c-.4-.6-.7-1.6-.7-3v-2c0-1.5.2-2.5.7-3.1s1.2-.8,2.2-.8,1.7.2,2.1.8.7,1.3.7,2.4h-1.7c0-.6-.1-1-.2-1.3s-.4-.4-.7-.4c-.8,0-1.3.7-1.3,2v3c0,.7.1,1.2.3,1.5.2.3.5.4,1,.4s.5-.2.7-.5c.2-.4.3-.9.3-1.7Z"/>
  </g>
  <g>
    <path class="st2" d="M21.8,21.6c-.3,6.1-3.4,9-6.8,11.2h-2.9c-3.3-2.1-6.3-5.6-6.6-11.6C4.9,11,15.2,0,15.2,0c0,0-1.2,4.1,2.6,10.2,3,4.9,4.2,8.1,4,11.4Z"/>
    <path class="st4" d="M21.6,21.6c-.4,6.1-3.2,8.9-6.6,11.2h-2.9c-3.3-2.1-6.3-5.6-6.6-11.6C4.9,11,15.2,0,15.2,0c0,0-1.4,4.2,2.4,10.3,3.1,4.9,4.2,8.1,4,11.3Z"/>
    <path class="st0" d="M14.9,32.8c1.9-1.6,4.1-4.2,4.4-8.7.4-7.5-5.8-14.5-5.8-14.5,0,0-6.5,5.2-5.8,14.5.3,4.5,2.6,7.2,4.4,8.7h2.8Z"/>
    <path class="st3" d="M14.9,32.8c1.9-1.6,3.6-4,4.1-8.4.8-6.9-5.5-14.7-5.5-14.7,0,0-6.4,4.8-5.8,14.5.2,4.5,2.6,7.2,4.4,8.7h2.8Z"/>
    <path class="st1" d="M14.9,32.8c1.2-1.3,2.7-3.6,2.9-6.9.3-5.6-4.3-10.3-4.3-10.3,0,0-4.6,4.7-4.3,10.3.2,3.3,1.7,5.6,2.9,6.9h2.8Z"/>
    <path class="st5" d="M14.9,32.8c1.2-1.3,2.4-3.6,2.6-6.9.3-5.6-4-10.3-4-10.3,0,0-4.6,4.7-4.3,10.3.2,3.3,1.7,5.6,2.9,6.9h2.8Z"/>
  </g>
  <g>
    <path class="st6" d="M45.5,15.3v.9c0,1.7.6,2.6,1.9,2.6s1.7-.6,1.7-1.8-.2-1.2-.6-1.6-1.2-1-2.3-1.7c-1.2-.7-2.1-1.5-2.7-2.2-.6-.7-.9-1.6-.9-2.6,0-2.8,1.5-4.1,4.6-4.1s2.8.4,3.5,1.2,1,2.1,1,3.9h-2.8v-.5c0-1.5-.6-2.2-1.7-2.2s-1.6.5-1.6,1.5.2,1,.5,1.3,1.1.9,2.3,1.7c1.3.9,2.3,1.6,2.8,2.3.6.7.8,1.5.8,2.6s-.4,2.6-1.2,3.4-2,1.2-3.5,1.2c-3.2,0-4.8-1.6-4.8-4.7v-1.2h3Z"/>
    <path class="st6" d="M54.3,9.1h2.7v8.4c0,1.1.4,1.6,1.1,1.6s1.3-.7,1.3-2.1v-7.9h2.7v11.8h-2.6v-1.8c-.4,1.4-1.3,2.1-2.6,2.1s-1.6-.2-2-.7-.6-1.3-.6-2.3c0,0,0-9.1,0-9.1Z"/>
    <path class="st6" d="M65.1,5.1h2.7v2.5h-2.7v-2.5ZM65.1,9.1h2.7v11.8h-2.7v-11.8Z"/>
    <path class="st6" d="M78.7,15.3v.9c0,1.7.6,2.6,1.9,2.6s1.7-.6,1.7-1.8-.2-1.2-.6-1.6-1.2-1-2.3-1.7c-1.2-.7-2.1-1.5-2.7-2.2s-.9-1.6-.9-2.6c0-2.8,1.5-4.1,4.6-4.1s2.8.4,3.5,1.2,1,2.1,1,3.9h-2.8v-.5c0-1.5-.6-2.2-1.7-2.2s-1.6.5-1.6,1.5.2,1,.5,1.3,1.1.9,2.3,1.7c1.3.9,2.3,1.6,2.8,2.3.6.7.8,1.5.8,2.6s-.4,2.6-1.2,3.4-2,1.2-3.5,1.2c-3.2,0-4.8-1.6-4.8-4.7v-1.2s3,0,3,0Z"/>
    <path class="st6" d="M87.4,15.8v-1.4c0-2.3.3-3.9,1-4.6s1.7-1.1,3.1-1.1,2.5.4,3.2,1.1c.6.7,1,2.1,1,4.2v1.4c0,2.3-.3,3.8-.9,4.5-.6.8-1.7,1.1-3.2,1.1s-2.7-.4-3.3-1.1c-.6-.6-.9-2-.9-4.1ZM90.1,12.8v4.3c0,.8,0,1.4.3,1.6.2.3.6.4,1.1.4s.9-.1,1.1-.4.3-.8.3-1.6v-4.4c0-1.3-.5-1.9-1.4-1.9s-.9.1-1.1.4c0,.4-.3.9-.3,1.6Z"/>
    <path class="st6" d="M98,9.1h2.7v8.4c0,1.1.4,1.6,1.1,1.6s1.3-.7,1.3-2.1v-7.9h2.7v11.8h-2.6v-1.8c-.4,1.4-1.3,2.1-2.6,2.1s-1.6-.2-2-.7-.6-1.3-.6-2.3v-9.1Z"/>
    <path class="st6" d="M107.6,11.1v-2h1.1v-3.3h2.7v3.3h1.1v2h-1.1v7.1c0,.2,0,.3,0,.5s.3.2.7.2h.4v2.1c-.5.1-.9.1-1.4.1-.8,0-1.4-.2-1.8-.5s-.6-.9-.6-1.6v-7.9h-1.2Z"/>
    <path class="st6" d="M114.4,5.2h2.7v5.3c.5-1.1,1.4-1.6,2.5-1.6s1.5.3,2,.8.8,1.2.8,2.2v9.1h-2.7v-8.1c0-.7,0-1.2-.3-1.5s-.5-.4-.9-.4c-.9,0-1.4.7-1.4,2.1v7.9h-2.7V5.2h0Z"/>
    <path class="st6" d="M127.4,15.5v1.7c0,.6,0,1.1.3,1.4.2.3.6.5,1.1.5.9,0,1.3-.5,1.3-1.6v-.6h2.7c0,2.8-1.3,4.3-3.8,4.3s-2.6-.4-3.3-1.1c-.7-.7-1-2-1-3.7v-3.2c0-2.9,1.3-4.4,4-4.4s2.4.3,3.1.9,1,2,1,4v1.8h-5.4ZM127.4,13.5h2.7v-1.2c0-.5-.1-.9-.3-1.1-.2-.2-.6-.3-1.1-.3s-.9.1-1,.4c-.2.3-.3.8-.3,1.4v.8h0Z"/>
    <path class="st6" d="M135.4,20.9v-11.8h2.6v2.1c.3-.7.7-1.3,1.1-1.8.5-.4,1-.6,1.7-.6v3.2h-.6c-1.5,0-2.2.7-2.2,2v6.9h-2.6Z"/>
    <path class="st6" d="M142.3,20.9v-11.8h2.7v1.3c.5-1.1,1.4-1.6,2.5-1.6s1.5.3,2,.8.8,1.2.8,2.2v9.1h-2.7v-8.1c0-.7-.1-1.2-.3-1.5s-.5-.4-.9-.4c-.9,0-1.4.7-1.4,2.1v7.9s-2.7,0-2.7,0Z"/>
    <path class="st6" d="M163.4,14.8v-2.3h4.8v8.4h-2.2v-2c-.3.8-.7,1.3-1.2,1.7s-1.2.6-2,.6c-1.8,0-3-.5-3.7-1.4-.7-1-1.1-2.6-1.1-5v-3.2c0-2.6.4-4.4,1.2-5.3s2.1-1.4,4-1.4,3.1.4,3.9,1.3c.8.8,1.2,2.2,1.2,4h-2.9c0-1-.2-1.7-.5-2.2s-.9-.7-1.7-.7-1.3.3-1.6.9c-.3.6-.5,1.4-.5,2.4v5.1c0,2.2.7,3.3,2.1,3.3s1.4-.3,1.8-1c.3-.7.5-1.7.5-3h-2.1v-.2Z"/>
    <path class="st6" d="M170.6,12.6c0-1.4.3-2.4,1-2.9.7-.6,1.7-.8,3.1-.8s2.4.3,3,.8.9,1.4.9,2.6v7.1c0,.6.1,1.1.2,1.6h-2.6c-.1-.3-.2-.6-.2-.9v-.4c-.4.6-.8,1-1.2,1.3-.4.2-.8.4-1.3.4-2.1,0-3.1-1.2-3.1-3.5s.3-1.9.8-2.4,1.4-1.1,2.7-1.6c.7-.3,1.2-.5,1.5-.7s.5-.5.5-1-.1-.7-.3-.8c-.2-.2-.5-.2-1-.2s-1,.1-1.2.3-.3.7-.3,1.3h-2.5v-.2h0ZM175.9,14.7l-1.6,1.1c-.4.3-.7.5-.9.8-.1.2-.2.6-.2,1.1,0,1,.4,1.5,1.3,1.5s1.4-.6,1.4-1.8v-2.7h0Z"/>
    <path class="st6" d="M180.7,16.9h2.7v.7c0,1,.4,1.4,1.2,1.4s1.2-.3,1.2-1-.1-.7-.4-1c-.3-.2-.6-.5-1.1-.8l-1.5-1.1c-1.3-.9-2-2.1-2-3.6s1.3-2.8,4-2.8,2.3.3,2.9,1c.6.6.9,1.6.9,3h-2.7c0-.8-.1-1.3-.3-1.5s-.5-.3-.9-.3c-.7,0-1.1.3-1.1,1s.1.6.3.8.5.5.9.7l2,1.4c1.3.9,1.9,1.9,1.9,3.1,0,2.3-1.3,3.4-3.9,3.4s-4-1.2-4-3.7c0-.4,0-.5,0-.7Z"/>
    <path class="st6" d="M49.2,34.6h2.9c0,1.8-.3,3.3-1,4.3s-1.8,1.6-3.5,1.6-3.3-.5-4-1.5-1.1-2.7-1.1-5v-3.3c0-2.5.4-4.2,1.2-5.1.8-1,2-1.4,3.7-1.4s2.8.4,3.5,1.3,1.1,2.2,1.1,4h-2.9c0-1,0-1.7-.3-2.2s-.6-.7-1.1-.7c-1.4,0-2.1,1.1-2.1,3.3v5.1c0,1.2.2,2,.5,2.5.4.5.9.7,1.6.7s.9-.3,1.1-.8c.3-.6.4-1.5.4-2.8Z"/>
    <path class="st6" d="M54.2,35v-1.4c0-2.3.3-3.9,1-4.6s1.7-1.1,3.1-1.1,2.5.4,3.2,1.1c.6.7,1,2.1,1,4.2v1.4c0,2.3-.3,3.8-.9,4.5-.6.8-1.7,1.1-3.2,1.1s-2.7-.4-3.3-1.1c-.6-.5-.9-2-.9-4.1ZM56.9,32v4.3c0,.8,0,1.4.3,1.6.2.3.6.4,1.1.4s.9,0,1.1-.4.3-.8.3-1.6v-4.4c0-1.3-.5-1.9-1.4-1.9s-.9.1-1.1.4c-.2.5-.3,1-.3,1.6Z"/>
    <path class="st6" d="M64.9,28.4h2.7v1.3c.5-1.1,1.4-1.6,2.7-1.6s1.3.2,1.7.5c.4.3.7.7.7,1.1,0-.4.4-.8.9-1.1s1.1-.5,1.8-.5,1.6.2,2.1.7.8,1.1.8,1.9v9.6h-2.7v-7.9c0-.7,0-1.3-.3-1.6-.2-.3-.5-.5-.9-.5s-.9.2-1.2.5c-.2.4-.3.9-.3,1.7v7.8h-2.7v-8.1c0-.7,0-1.2-.3-1.5-.2-.3-.5-.4-1.1-.4s-.8.1-1,.4-.3.8-.3,1.7v7.9h-2.6s0-11.9,0-11.9Z"/>
    <path class="st6" d="M84,29.7c.5-1.1,1.2-1.6,2.3-1.6s1.6.3,2.2.9c.5.6.8,1.7.8,3.2v4.3c0,2.7-.9,4-2.8,4s-1.1,0-1.5-.3-.7-.6-1-1.1v5.1h-2.7v-15.7h2.7v1.2ZM84,32.5v3.8c0,1.4.4,2.1,1.3,2.1s1.2-.7,1.2-2.1v-4.3c0-.6,0-1.1-.3-1.4-.2-.3-.5-.4-.9-.4-.8-.1-1.3.7-1.3,2.3Z"/>
    <path class="st6" d="M91.3,31.8c0-1.4.3-2.4,1-2.9.7-.6,1.7-.8,3.1-.8s2.4.3,3,.8.9,1.4.9,2.6v7.1c0,.6,0,1.1.2,1.6h-2.6c0-.3-.2-.6-.2-.9v-.4c-.4.6-.8,1-1.2,1.3-.4.2-.8.4-1.3.4-2.1,0-3.1-1.2-3.1-3.5s.3-1.9.8-2.4,1.4-1.1,2.7-1.6c.7-.3,1.2-.5,1.5-.7s.5-.6.5-1,0-.7-.3-.9c-.2-.2-.5-.2-1-.2s-1,.1-1.2.3-.3.7-.3,1.3h-2.5ZM96.7,34l-1.6,1.1c-.4.3-.7.5-.9.8,0,.2-.2.6-.2,1.1,0,1,.4,1.5,1.3,1.5s1.4-.6,1.4-1.8v-2.7h0Z"/>
    <path class="st6" d="M102.1,40.2v-11.8h2.7v1.3c.5-1.1,1.4-1.6,2.5-1.6s1.5.3,2,.8.8,1.2.8,2.2v9.1h-2.7v-8.1c0-.7,0-1.2-.3-1.5-.2-.3-.5-.4-.9-.4-.9,0-1.4.7-1.4,2.1v7.9h-2.7Z"/>
    <path class="st6" d="M113,44.1v-2.1h.5c.4,0,.7,0,.9,0s.2-.3.2-.5c0-.3,0-.7-.2-1.1l-2.9-11.9h2.9l1.6,8.5,1.6-8.5h2.8l-3.1,13.2c-.2,1-.6,1.6-1,2s-1.1.6-2,.6-.8,0-1.3-.1Z"/>
    <path class="st6" d="M127.3,24.4h2.9v13.4h5.4v2.3h-8.3v-15.7h0Z"/>
    <path class="st6" d="M137.9,24.4h2.7v2.5h-2.7v-2.5ZM137.9,28.4h2.7v11.8h-2.7v-11.8Z"/>
    <path class="st6" d="M143.6,28.4h2.7v1.3c.5-1.1,1.4-1.6,2.7-1.6s1.3.2,1.7.5.7.7.7,1.1c.1-.4.4-.8.9-1.1s1.1-.5,1.8-.5,1.6.2,2.1.7.8,1.1.8,1.9v9.6h-2.7v-7.9c0-.7-.1-1.3-.3-1.6s-.5-.5-.9-.5-.9.2-1.2.5c-.2.4-.3.9-.3,1.7v7.8h-2.7v-8.1c0-.7-.1-1.2-.3-1.5s-.5-.4-1.1-.4-.8.1-1,.4-.3.8-.3,1.7v7.9h-2.7v-11.9h.1Z"/>
    <path class="st6" d="M160.1,24.4h2.7v2.5h-2.7v-2.5ZM160.1,28.4h2.7v11.8h-2.7v-11.8Z"/>
    <path class="st6" d="M164.6,30.4v-2h1.1v-3.3h2.7v3.3h1.1v2h-1.1v7.1c0,.2,0,.3.1.5s.3.2.7.2h.4v2.1c-.5,0-.9,0-1.4,0-.8,0-1.4-.2-1.8-.5s-.6-.9-.6-1.6v-7.9h-1.2Z"/>
    <path class="st6" d="M174,34.8v1.7c0,.6.1,1.1.3,1.4s.6.5,1.1.5c.9,0,1.3-.5,1.3-1.6v-.6h2.7c0,2.8-1.3,4.3-3.8,4.3s-2.6-.4-3.3-1.1-1-2-1-3.7v-3.2c0-2.9,1.3-4.4,4-4.4s2.4.3,3.1.9,1,2,1,4v1.8h-5.4ZM174,32.7h2.7v-1.1c0-.5-.1-.9-.3-1.1s-.6-.3-1.1-.3-.9.1-1,.4c-.2.3-.3.8-.3,1.4v.7h0Z"/>
    <path class="st6" d="M187,29.5v-5.1h2.7v15.7h-2.7v-1.3c-.5,1.1-1.3,1.6-2.3,1.6s-1.7-.3-2.2-.9-.7-1.7-.7-3.2v-4c0-1.6.2-2.7.7-3.3s1.2-1,2.1-1c1.2.1,2,.6,2.4,1.5ZM184.5,32.3v4.3c0,1.2.4,1.9,1.2,1.9s1.4-.8,1.4-2.3v-3.9c0-1.4-.4-2.1-1.3-2.1s-1.2.5-1.2,1.6v.5s0,0,0,0Z"/>
  </g>
</svg>